<?xml version="1.0" encoding="UTF-8"?>
<svg width="41px" height="41px" viewBox="0 0 41 41" version="1.1" xmlns="http://www.w3.org/2000/svg" xmlns:xlink="http://www.w3.org/1999/xlink">
    <title>Group@3x</title>
    <g id="Page-1" stroke="none" stroke-width="1" fill="none" fill-rule="evenodd">
        <g id="o" transform="translate(-14.000000, -12.000000)" fill="#F1F3F8">
            <g id="Group" transform="translate(14.000000, 12.000000)">
                <path d="M20.5,0 C31.8218374,0 41,9.17816263 41,20.5 C41,31.8218374 31.8218374,41 20.5,41 C9.17816263,41 0,31.8218374 0,20.5 C0,9.17816263 9.17816263,0 20.5,0 Z M15.0660139,11.5393571 C14.0838905,10.6867001 12.5950277,10.7273028 11.6611652,11.6611652 L11.6611652,11.6611652 L11.5393571,11.7918505 C10.6867001,12.7739738 10.7273028,14.2628367 11.6611652,15.1966991 L11.6611652,15.1966991 L16.965,20.5 L11.6611652,25.8033009 C10.6848545,26.7796116 10.6848545,28.362524 11.6611652,29.3388348 C12.637476,30.3151455 14.2203884,30.3151455 15.1966991,29.3388348 L15.1966991,29.3388348 L20.5,24.035 L25.8033009,29.3388348 L25.9339861,29.4606429 C26.9161095,30.3132999 28.4049723,30.2726972 29.3388348,29.3388348 L29.3388348,29.3388348 L29.4606429,29.2081495 C30.3132999,28.2260262 30.2726972,26.7371633 29.3388348,25.8033009 L29.3388348,25.8033009 L24.035,20.5 L29.3388348,15.1966991 C30.3151455,14.2203884 30.3151455,12.637476 29.3388348,11.6611652 C28.362524,10.6848545 26.7796116,10.6848545 25.8033009,11.6611652 L25.8033009,11.6611652 L20.5,16.965 L15.1966991,11.6611652 Z" id="Combined-Shape"></path>
            </g>
        </g>
    </g>
</svg>